<svg>
	<symbol fill="currentColor" version="1.1" id="facebook_icon" xmlns="http://www.w3.org/2000/svg" xmlns:xlink="http://www.w3.org/1999/xlink" xml:space="preserve" viewBox="-143 145 512 512">
		<path d="M113,145c-141.4,0-256,114.6-256,256s114.6,256,256,256s256-114.6,256-256S254.4,145,113,145z M169.5,357.6l-2.9,38.3h-39.3
		v133H77.7v-133H51.2v-38.3h26.5v-25.7c0-11.3,0.3-28.8,8.5-39.7c8.7-11.5,20.6-19.3,41.1-19.3c33.4,0,47.4,4.8,47.4,4.8l-6.6,39.2
		c0,0-11-3.2-21.3-3.2c-10.3,0-19.5,3.7-19.5,14v29.9H169.5z"></path>
	</symbol>
	<symbol fill="currentColor" version="1.1" id="instagram_icon" xmlns="http://www.w3.org/2000/svg" xmlns:xlink="http://www.w3.org/1999/xlink" xml:space="preserve" viewBox="-143 145 512 512">
		<g>
			<path d="M113,446c24.8,0,45.1-20.2,45.1-45.1c0-9.8-3.2-18.9-8.5-26.3c-8.2-11.3-21.5-18.8-36.5-18.8s-28.3,7.4-36.5,18.8
			c-5.3,7.4-8.5,16.5-8.5,26.3C68,425.8,88.2,446,113,446z"></path>
			<polygon points="211.4,345.9 211.4,308.1 211.4,302.5 205.8,302.5 168,302.6 168.2,346 	"></polygon>
			<path d="M183,401c0,38.6-31.4,70-70,70c-38.6,0-70-31.4-70-70c0-9.3,1.9-18.2,5.2-26.3H10v104.8C10,493,21,504,34.5,504h157
			c13.5,0,24.5-11,24.5-24.5V374.7h-38.2C181.2,382.8,183,391.7,183,401z"></path>
			<path d="M113,145c-141.4,0-256,114.6-256,256s114.6,256,256,256s256-114.6,256-256S254.4,145,113,145z M241,374.7v104.8
			c0,27.3-22.2,49.5-49.5,49.5h-157C7.2,529-15,506.8-15,479.5V374.7v-52.3c0-27.3,22.2-49.5,49.5-49.5h157
			c27.3,0,49.5,22.2,49.5,49.5V374.7z"></path>
		</g>
	</symbol>
	<symbol fill="currentColor" version="1.1" id="linkedin_icon" xmlns="http://www.w3.org/2000/svg" xmlns:xlink="http://www.w3.org/1999/xlink" xml:space="preserve" viewBox="-143 145 512 512">
		<path d="M113,145c-141.4,0-256,114.6-256,256s114.6,256,256,256s256-114.6,256-256S254.4,145,113,145z M41.4,508.1H-8.5V348.4h49.9
		V508.1z M15.1,328.4h-0.4c-18.1,0-29.8-12.2-29.8-27.7c0-15.8,12.1-27.7,30.5-27.7c18.4,0,29.7,11.9,30.1,27.7
		C45.6,316.1,33.9,328.4,15.1,328.4z M241,508.1h-56.6v-82.6c0-21.6-8.8-36.4-28.3-36.4c-14.9,0-23.2,10-27,19.6
		c-1.4,3.4-1.2,8.2-1.2,13.1v86.3H71.8c0,0,0.7-146.4,0-159.7h56.1v25.1c3.3-11,21.2-26.6,49.8-26.6c35.5,0,63.3,23,63.3,72.4V508.1z
		"></path>
	</symbol>
	<symbol fill="currentColor" version="1.1" xmlns="http://www.w3.org/2000/svg" viewBox="0 0 32 32" id="telegram_icon">
		<path d="M22.122 10.040c0.006-0 0.014-0 0.022-0 0.209 0 0.403 0.065 0.562 0.177l-0.003-0.002c0.116 0.101 0.194 0.243 0.213 0.403l0 0.003c0.020 0.122 0.031 0.262 0.031 0.405 0 0.065-0.002 0.129-0.007 0.193l0-0.009c-0.225 2.369-1.201 8.114-1.697 10.766-0.21 1.123-0.623 1.499-1.023 1.535-0.869 0.081-1.529-0.574-2.371-1.126-1.318-0.865-2.063-1.403-3.342-2.246-1.479-0.973-0.52-1.51 0.322-2.384 0.221-0.23 4.052-3.715 4.127-4.031 0.004-0.019 0.006-0.040 0.006-0.062 0-0.078-0.029-0.149-0.076-0.203l0 0c-0.052-0.034-0.117-0.053-0.185-0.053-0.045 0-0.088 0.009-0.128 0.024l0.002-0.001q-0.198 0.045-6.316 4.174c-0.445 0.351-1.007 0.573-1.619 0.599l-0.006 0c-0.867-0.105-1.654-0.298-2.401-0.573l0.074 0.024c-0.938-0.306-1.683-0.467-1.619-0.985q0.051-0.404 1.114-0.827 6.548-2.853 8.733-3.761c1.607-0.853 3.47-1.555 5.429-2.010l0.157-0.031zM15.93 1.025c-8.302 0.020-15.025 6.755-15.025 15.060 0 8.317 6.742 15.060 15.060 15.060s15.060-6.742 15.060-15.060c0-8.305-6.723-15.040-15.023-15.060h-0.002q-0.035-0-0.070 0z"></path>
	</symbol>
	<symbol version="1.1" xmlns="http://www.w3.org/2000/svg" xmlns:xlink="http://www.w3.org/1999/xlink" viewBox="0 0 20 20" id="whatsapp_icon">
		<g id="Page-1" stroke="none" stroke-width="1" fill="none" fill-rule="evenodd">
			<g id="Dribbble-Light-Preview" transform="translate(-300.000000, -7599.000000)" fill="currentColor">
			<g id="icons" transform="translate(56.000000, 160.000000)">
				<path d="M259.821,7453.12124 C259.58,7453.80344 258.622,7454.36761 257.858,7454.53266 C257.335,7454.64369 256.653,7454.73172 254.355,7453.77943 C251.774,7452.71011 248.19,7448.90097 248.19,7446.36621 C248.19,7445.07582 248.934,7443.57337 250.235,7443.57337 C250.861,7443.57337 250.999,7443.58538 251.205,7444.07952 C251.446,7444.6617 252.034,7446.09613 252.104,7446.24317 C252.393,7446.84635 251.81,7447.19946 251.387,7447.72462 C251.252,7447.88266 251.099,7448.05372 251.27,7448.3478 C251.44,7448.63589 252.028,7449.59418 252.892,7450.36341 C254.008,7451.35771 254.913,7451.6748 255.237,7451.80984 C255.478,7451.90987 255.766,7451.88687 255.942,7451.69881 C256.165,7451.45774 256.442,7451.05762 256.724,7450.6635 C256.923,7450.38141 257.176,7450.3464 257.441,7450.44643 C257.62,7450.50845 259.895,7451.56477 259.991,7451.73382 C260.062,7451.85686 260.062,7452.43903 259.821,7453.12124 M254.002,7439 L253.997,7439 L253.997,7439 C248.484,7439 244,7443.48535 244,7449 C244,7451.18666 244.705,7453.21526 245.904,7454.86076 L244.658,7458.57687 L248.501,7457.3485 C250.082,7458.39482 251.969,7459 254.002,7459 C259.515,7459 264,7454.51465 264,7449 C264,7443.48535 259.515,7439 254.002,7439"></path>
			</g>
			</g>
		</g>
	</symbol>
</svg>