<svg width="944" height="123" viewBox="0 0 944 123" fill="none" xmlns="http://www.w3.org/2000/svg">
<path opacity="0.24" d="M151.503 31.6127C105.054 36.2832 57.1801 41.4186 16.3067 64.2637C10.8359 67.3281 5.28134 70.9419 2.263 76.4577C-3.79465 87.5527 3.08047 102.177 13.7495 108.855C24.4185 115.533 37.5818 116.294 50.1373 116.844C273.704 126.586 497.607 122.761 721.362 118.957C786.341 117.858 852.346 116.59 914.62 97.7178C925.813 94.3365 938.117 89.2645 942.33 78.2118C947.843 63.7565 935.267 47.7375 920.594 43.2361C905.922 38.7347 890.264 42.0949 875.088 44.0603C822.393 50.8863 769.237 40.4465 716.772 32.0988C614.064 15.7838 507.5 2.51208 403.472 0.0394824C368.007 -0.784718 337.718 11.5149 303.007 16.3756C252.89 23.4341 201.893 26.5407 151.503 31.6127Z" fill="#505F98"/>
</svg>
