<svg width="1167" height="972" viewBox="0 0 1167 972" fill="none" xmlns="http://www.w3.org/2000/svg">
<path opacity="0.5" d="M249.328 72.5812C155.392 156.739 140.835 315.877 77.2155 433.278C55.069 474.13 26.4527 510.691 11.5224 556.01C-22.7549 659.742 24.4205 777.409 87.563 859.798C117.672 899.101 152.841 935.109 195.393 951.675C228.115 964.415 263.201 964.946 297.644 965.278L901.075 971.913C968.447 972.643 1043.31 970.011 1091.75 914.407C1125.13 876.121 1138.69 820.207 1150.2 766.837C1164.34 701.258 1177.16 630.038 1155.16 567.578C1130.03 496.115 1066.47 455.617 1026.99 393.953C962.911 294.047 964.383 142.938 882.785 63.1812C844.692 25.9569 794.427 11.3592 745.448 4.06028C653.108 -9.71911 565.642 16.2914 474.961 12.6641C397.449 9.56761 313.632 14.9644 249.328 72.5812Z" fill="#E7ECFF"/>
</svg>
