<svg width="53" height="221" viewBox="0 0 53 221" fill="none" xmlns="http://www.w3.org/2000/svg">
<path d="M1.23216 220.577L1.01639 188.475L52.7198 188.073L52.9356 220.176L1.23216 220.577Z" fill="#505F98"/>
<path d="M1.23216 220.577L1.01639 188.475L52.7198 188.073L52.9356 220.176L1.23216 220.577Z" fill="url(#paint0_linear_84_1021)"/>
<path d="M1.11857 188.675L0.902805 156.572L52.6063 156.171L52.822 188.274L1.11857 188.675Z" fill="#505F98"/>
<path d="M1.11857 188.675L0.902805 156.572L52.6063 156.171L52.822 188.274L1.11857 188.675Z" fill="url(#paint1_linear_84_1021)"/>
<path d="M0.983943 156.773L0.768174 124.67L52.4716 124.269L52.6874 156.372L0.983943 156.773Z" fill="#505F98"/>
<path d="M0.983943 156.773L0.768174 124.67L52.4716 124.269L52.6874 156.372L0.983943 156.773Z" fill="url(#paint2_linear_84_1021)"/>
<path d="M0.898264 124.88L0.682496 92.777L52.3859 92.3758L52.6017 124.479L0.898264 124.88Z" fill="#505F98"/>
<path d="M0.898264 124.88L0.682496 92.777L52.3859 92.3758L52.6017 124.479L0.898264 124.88Z" fill="url(#paint3_linear_84_1021)"/>
<path d="M0.763561 92.9567L0.547792 60.8538L52.2512 60.4526L52.467 92.5555L0.763561 92.9567Z" fill="#505F98"/>
<path d="M0.659189 61.0731L0.44342 28.9702L52.1469 28.5689L52.3626 60.6718L0.659189 61.0731Z" fill="#505F98"/>
<path d="M0.524565 29.1709L0.506993 0.966494L26.3587 0.76587L52.2105 0.565247L52.228 28.7696L0.524565 29.1709Z" fill="#505F98"/>
<path d="M0.836562 64.9928L0.620793 32.8898L52.3242 32.4886L52.54 64.5915L0.836562 64.9928Z" fill="url(#paint4_linear_84_1021)"/>
<path d="M0.722781 33.0694L0.506993 0.966494L52.2105 0.565247L52.4262 32.6682L0.722781 33.0694Z" fill="url(#paint5_linear_84_1021)"/>
<defs>
<linearGradient id="paint0_linear_84_1021" x1="-8.95844" y1="600.534" x2="226.231" y2="601.61" gradientUnits="userSpaceOnUse">
<stop stop-color="#010101" stop-opacity="0.01"/>
<stop offset="0.95" stop-color="#010101"/>
</linearGradient>
<linearGradient id="paint1_linear_84_1021" x1="-15.9234" y1="803.739" x2="317.317" y2="806.046" gradientUnits="userSpaceOnUse">
<stop stop-color="#010101" stop-opacity="0.01"/>
<stop offset="0.95" stop-color="#010101"/>
</linearGradient>
<linearGradient id="paint2_linear_84_1021" x1="5.22927" y1="1278.16" x2="559.662" y2="1270.12" gradientUnits="userSpaceOnUse">
<stop stop-color="#010101" stop-opacity="0.01"/>
<stop offset="0.95" stop-color="#010101"/>
</linearGradient>
<linearGradient id="paint3_linear_84_1021" x1="20.6361" y1="1796.88" x2="824.776" y2="1789.12" gradientUnits="userSpaceOnUse">
<stop stop-color="#010101" stop-opacity="0.01"/>
<stop offset="0.36" stop-color="#010101" stop-opacity="0.36"/>
<stop offset="0.95" stop-color="#010101"/>
</linearGradient>
<linearGradient id="paint4_linear_84_1021" x1="-29.7114" y1="1031.02" x2="408.951" y2="1030.49" gradientUnits="userSpaceOnUse">
<stop stop-color="white" stop-opacity="0.01"/>
<stop offset="0.07" stop-color="white" stop-opacity="0.22"/>
<stop offset="0.16" stop-color="white" stop-opacity="0.45"/>
<stop offset="0.25" stop-color="white" stop-opacity="0.65"/>
<stop offset="0.33" stop-color="white" stop-opacity="0.8"/>
<stop offset="0.4" stop-color="white" stop-opacity="0.91"/>
<stop offset="0.46" stop-color="white" stop-opacity="0.98"/>
<stop offset="0.51" stop-color="white"/>
</linearGradient>
<linearGradient id="paint5_linear_84_1021" x1="149.642" y1="68.9372" x2="146.552" y2="-81.3212" gradientUnits="userSpaceOnUse">
<stop stop-color="white" stop-opacity="0.01"/>
<stop offset="0.07" stop-color="white" stop-opacity="0.22"/>
<stop offset="0.16" stop-color="white" stop-opacity="0.45"/>
<stop offset="0.25" stop-color="white" stop-opacity="0.65"/>
<stop offset="0.33" stop-color="white" stop-opacity="0.8"/>
<stop offset="0.4" stop-color="white" stop-opacity="0.91"/>
<stop offset="0.46" stop-color="white" stop-opacity="0.98"/>
<stop offset="0.51" stop-color="white"/>
</linearGradient>
</defs>
</svg>
