<svg width="51" height="186" viewBox="0 0 51 186" fill="none" xmlns="http://www.w3.org/2000/svg">
<path d="M34.6535 26.1498V149H13.6389V26.1498C13.6389 21.6099 16.4573 17.5698 20.6573 16.089V3.82478C20.6573 1.71241 22.3332 0 24.4005 0C26.4678 0 28.1436 1.71241 28.1436 3.82478V16.2969C32.0629 17.9351 34.6316 21.8231 34.6535 26.1498Z" fill="#505F98"/>
<path d="M34.6535 26.1498V149H13.6389V26.1498C13.6389 21.6099 16.4573 17.5698 20.6573 16.089V3.82478C20.6573 1.71241 22.3332 0 24.4005 0C26.4678 0 28.1436 1.71241 28.1436 3.82478V16.2969C32.0629 17.9351 34.6316 21.8231 34.6535 26.1498Z" fill="url(#paint0_linear_64_1060)"/>
<rect x="0.629883" y="104" width="50.0346" height="9" rx="2.245" fill="#505F98"/>
<path d="M25.3355 186C16.7627 186 9.63611 173.185 9.63611 164.634V108H40.6576V164.634C40.6576 173.185 33.8874 186 25.3355 186Z" fill="#505F98"/>
<rect x="0.629883" y="104" width="50.0346" height="9" rx="2.245" fill="url(#paint1_linear_64_1060)"/>
<path d="M25.3355 186C16.7627 186 9.63611 173.366 9.63611 164.937V113H40.6576V164.937C40.6576 173.366 33.8874 186 25.3355 186Z" fill="url(#paint2_linear_64_1060)"/>
<defs>
<linearGradient id="paint0_linear_64_1060" x1="15.738" y1="209.745" x2="53.9228" y2="209.767" gradientUnits="userSpaceOnUse">
<stop stop-color="white" stop-opacity="0.01"/>
<stop offset="0.07" stop-color="white" stop-opacity="0.22"/>
<stop offset="0.16" stop-color="white" stop-opacity="0.45"/>
<stop offset="0.25" stop-color="white" stop-opacity="0.65"/>
<stop offset="0.33" stop-color="white" stop-opacity="0.8"/>
<stop offset="0.4" stop-color="white" stop-opacity="0.91"/>
<stop offset="0.46" stop-color="white" stop-opacity="0.98"/>
<stop offset="0.51" stop-color="white"/>
</linearGradient>
<linearGradient id="paint1_linear_64_1060" x1="-57.5542" y1="112.2" x2="-45.9029" y2="150.932" gradientUnits="userSpaceOnUse">
<stop stop-color="#010101" stop-opacity="0.01"/>
<stop offset="0.95" stop-color="#010101"/>
</linearGradient>
<linearGradient id="paint2_linear_64_1060" x1="-32.7562" y1="260.933" x2="68.1462" y2="262.976" gradientUnits="userSpaceOnUse">
<stop stop-color="#010101" stop-opacity="0.01"/>
<stop offset="0.95" stop-color="#010101"/>
</linearGradient>
</defs>
</svg>
