<svg width="519" height="435" viewBox="0 0 519 435" fill="none" xmlns="http://www.w3.org/2000/svg">
<rect x="208.144" y="342" width="98.0679" height="82" fill="#505F98"/>
<rect x="208.144" y="342" width="98.0679" height="82" fill="url(#paint0_linear_64_1063)"/>
<rect width="518.359" height="355" rx="9.37" fill="#505F98"/>
<path opacity="0.65" d="M501.347 29.4378V323.562C501.364 328.443 499.44 333.129 496 336.588C492.56 340.047 487.886 341.994 483.01 342H31.3464C26.4719 341.989 21.8015 340.04 18.3626 336.582C14.9237 333.125 12.998 328.441 13.0091 323.562V29.4378C12.998 24.5589 14.9237 19.8754 18.3626 16.4177C21.8015 12.9599 26.4719 11.0111 31.3464 11H483.01C487.886 11.0055 492.56 12.9526 496 16.4115C499.44 19.8705 501.364 24.5572 501.347 29.4378Z" fill="url(#paint1_linear_64_1063)"/>
<rect x="163.113" y="414" width="206.143" height="21" fill="#505F98"/>
<rect x="208.144" y="402" width="98.0679" height="12" fill="url(#paint2_linear_64_1063)"/>
<path d="M501.347 29.5131V36H13.0091V29.5131C12.998 24.6143 14.9238 19.9117 18.363 16.4398C21.8022 12.9679 26.4731 11.0112 31.348 11H483.008C487.885 11.0056 492.559 12.9605 495.999 16.4336C499.44 19.9067 501.364 24.6126 501.347 29.5131Z" fill="url(#paint3_linear_64_1063)"/>
<rect x="23.016" y="68" width="47.0326" height="227" fill="url(#paint4_linear_64_1063)"/>
<rect x="141.098" y="84" width="221.153" height="209" fill="url(#paint5_linear_64_1063)"/>
<rect x="394.273" y="48" width="100.069" height="100" fill="url(#paint6_linear_64_1063)"/>
<rect x="394.273" y="158" width="100.069" height="100" fill="url(#paint7_linear_64_1063)"/>
<defs>
<linearGradient id="paint0_linear_64_1063" x1="330.279" y1="410.322" x2="340.7" y2="283.584" gradientUnits="userSpaceOnUse">
<stop stop-color="#010101" stop-opacity="0.01"/>
<stop offset="0.95" stop-color="#010101"/>
</linearGradient>
<linearGradient id="paint1_linear_64_1063" x1="-71.4339" y1="-52.4833" x2="-74.1492" y2="397.071" gradientUnits="userSpaceOnUse">
<stop stop-color="white" stop-opacity="0.01"/>
<stop offset="0.07" stop-color="white" stop-opacity="0.22"/>
<stop offset="0.16" stop-color="white" stop-opacity="0.45"/>
<stop offset="0.25" stop-color="white" stop-opacity="0.65"/>
<stop offset="0.33" stop-color="white" stop-opacity="0.8"/>
<stop offset="0.4" stop-color="white" stop-opacity="0.91"/>
<stop offset="0.46" stop-color="white" stop-opacity="0.98"/>
<stop offset="0.51" stop-color="white"/>
</linearGradient>
<linearGradient id="paint2_linear_64_1063" x1="-325.088" y1="385.073" x2="-324.988" y2="527.306" gradientUnits="userSpaceOnUse">
<stop stop-color="#010101" stop-opacity="0.01"/>
<stop offset="0.95" stop-color="#010101"/>
</linearGradient>
<linearGradient id="paint3_linear_64_1063" x1="827.325" y1="130.966" x2="861.509" y2="-276.145" gradientUnits="userSpaceOnUse">
<stop stop-color="white" stop-opacity="0.01"/>
<stop offset="0.07" stop-color="white" stop-opacity="0.22"/>
<stop offset="0.16" stop-color="white" stop-opacity="0.45"/>
<stop offset="0.25" stop-color="white" stop-opacity="0.65"/>
<stop offset="0.33" stop-color="white" stop-opacity="0.8"/>
<stop offset="0.4" stop-color="white" stop-opacity="0.91"/>
<stop offset="0.46" stop-color="white" stop-opacity="0.98"/>
<stop offset="0.51" stop-color="white"/>
</linearGradient>
<linearGradient id="paint4_linear_64_1063" x1="0.444933" y1="20.8698" x2="138.452" y2="389.142" gradientUnits="userSpaceOnUse">
<stop stop-color="white" stop-opacity="0.01"/>
<stop offset="0.07" stop-color="white" stop-opacity="0.22"/>
<stop offset="0.16" stop-color="white" stop-opacity="0.45"/>
<stop offset="0.25" stop-color="white" stop-opacity="0.65"/>
<stop offset="0.33" stop-color="white" stop-opacity="0.8"/>
<stop offset="0.4" stop-color="white" stop-opacity="0.91"/>
<stop offset="0.46" stop-color="white" stop-opacity="0.98"/>
<stop offset="0.51" stop-color="white"/>
</linearGradient>
<linearGradient id="paint5_linear_64_1063" x1="103.975" y1="43.9902" x2="100.65" y2="326.698" gradientUnits="userSpaceOnUse">
<stop stop-color="white" stop-opacity="0.01"/>
<stop offset="0.07" stop-color="white" stop-opacity="0.22"/>
<stop offset="0.16" stop-color="white" stop-opacity="0.45"/>
<stop offset="0.25" stop-color="white" stop-opacity="0.65"/>
<stop offset="0.33" stop-color="white" stop-opacity="0.8"/>
<stop offset="0.4" stop-color="white" stop-opacity="0.91"/>
<stop offset="0.46" stop-color="white" stop-opacity="0.98"/>
<stop offset="0.51" stop-color="white"/>
</linearGradient>
<linearGradient id="paint6_linear_64_1063" x1="377.584" y1="28.8638" x2="375.799" y2="164.026" gradientUnits="userSpaceOnUse">
<stop stop-color="white" stop-opacity="0.01"/>
<stop offset="0.07" stop-color="white" stop-opacity="0.22"/>
<stop offset="0.16" stop-color="white" stop-opacity="0.45"/>
<stop offset="0.25" stop-color="white" stop-opacity="0.65"/>
<stop offset="0.33" stop-color="white" stop-opacity="0.8"/>
<stop offset="0.4" stop-color="white" stop-opacity="0.91"/>
<stop offset="0.46" stop-color="white" stop-opacity="0.98"/>
<stop offset="0.51" stop-color="white"/>
</linearGradient>
<linearGradient id="paint7_linear_64_1063" x1="377.584" y1="138.864" x2="375.799" y2="274.026" gradientUnits="userSpaceOnUse">
<stop stop-color="white" stop-opacity="0.01"/>
<stop offset="0.07" stop-color="white" stop-opacity="0.22"/>
<stop offset="0.16" stop-color="white" stop-opacity="0.45"/>
<stop offset="0.25" stop-color="white" stop-opacity="0.65"/>
<stop offset="0.33" stop-color="white" stop-opacity="0.8"/>
<stop offset="0.4" stop-color="white" stop-opacity="0.91"/>
<stop offset="0.46" stop-color="white" stop-opacity="0.98"/>
<stop offset="0.51" stop-color="white"/>
</linearGradient>
</defs>
</svg>
